<svg id="visual" viewBox="0 0 280 450" width="280" height="450" xmlns="http://www.w3.org/2000/svg" xmlns:xlink="http://www.w3.org/1999/xlink" version="1.1"><rect x="0" y="0" width="280" height="450" fill="#001220"></rect><path d="M0 127L6.7 123.2C13.3 119.3 26.7 111.7 40 113.2C53.3 114.7 66.7 125.3 80 131.7C93.3 138 106.7 140 120 141.8C133.3 143.7 146.7 145.3 160 136.7C173.3 128 186.7 109 200 107.2C213.3 105.3 226.7 120.7 240 123.3C253.3 126 266.7 116 273.3 111L280 106L280 0L273.3 0C266.7 0 253.3 0 240 0C226.7 0 213.3 0 200 0C186.7 0 173.3 0 160 0C146.7 0 133.3 0 120 0C106.7 0 93.3 0 80 0C66.7 0 53.3 0 40 0C26.7 0 13.3 0 6.7 0L0 0Z" fill="#ff0707"></path><path d="M0 74L6.7 78C13.3 82 26.7 90 40 97.3C53.3 104.7 66.7 111.3 80 111.7C93.3 112 106.7 106 120 100C133.3 94 146.7 88 160 88.3C173.3 88.7 186.7 95.3 200 97.7C213.3 100 226.7 98 240 101C253.3 104 266.7 112 273.3 116L280 120L280 0L273.3 0C266.7 0 253.3 0 240 0C226.7 0 213.3 0 200 0C186.7 0 173.3 0 160 0C146.7 0 133.3 0 120 0C106.7 0 93.3 0 80 0C66.7 0 53.3 0 40 0C26.7 0 13.3 0 6.7 0L0 0Z" fill="#f77b20"></path><path d="M0 81L6.7 79.8C13.3 78.7 26.7 76.3 40 71.7C53.3 67 66.7 60 80 57.3C93.3 54.7 106.7 56.3 120 62.3C133.3 68.3 146.7 78.7 160 80.7C173.3 82.7 186.7 76.3 200 72.8C213.3 69.3 226.7 68.7 240 67.3C253.3 66 266.7 64 273.3 63L280 62L280 0L273.3 0C266.7 0 253.3 0 240 0C226.7 0 213.3 0 200 0C186.7 0 173.3 0 160 0C146.7 0 133.3 0 120 0C106.7 0 93.3 0 80 0C66.7 0 53.3 0 40 0C26.7 0 13.3 0 6.7 0L0 0Z" fill="#f0b15d"></path><path d="M0 40L6.7 40.2C13.3 40.3 26.7 40.7 40 44.7C53.3 48.7 66.7 56.3 80 61C93.3 65.7 106.7 67.3 120 66C133.3 64.7 146.7 60.3 160 55.2C173.3 50 186.7 44 200 41.2C213.3 38.3 226.7 38.7 240 43.2C253.3 47.7 266.7 56.3 273.3 60.7L280 65L280 0L273.3 0C266.7 0 253.3 0 240 0C226.7 0 213.3 0 200 0C186.7 0 173.3 0 160 0C146.7 0 133.3 0 120 0C106.7 0 93.3 0 80 0C66.7 0 53.3 0 40 0C26.7 0 13.3 0 6.7 0L0 0Z" fill="#efdca8"></path><path d="M0 36L6.7 33.2C13.3 30.3 26.7 24.7 40 23.8C53.3 23 66.7 27 80 28.5C93.3 30 106.7 29 120 27.2C133.3 25.3 146.7 22.7 160 20.3C173.3 18 186.7 16 200 19.2C213.3 22.3 226.7 30.7 240 32C253.3 33.3 266.7 27.7 273.3 24.8L280 22L280 0L273.3 0C266.7 0 253.3 0 240 0C226.7 0 213.3 0 200 0C186.7 0 173.3 0 160 0C146.7 0 133.3 0 120 0C106.7 0 93.3 0 80 0C66.7 0 53.3 0 40 0C26.7 0 13.3 0 6.7 0L0 0Z" fill="#fffff9"></path></svg>